<?xml version="1.0" encoding="UTF-8"?>
<svg id="b" data-name="Layer 2" xmlns="http://www.w3.org/2000/svg" width="158.45" height="216.58" viewBox="0 0 158.45 216.58">
  <g id="c" data-name="Art">
    <path d="M82.06,3.38l-2.84-3.38-2.84,3.38c-.34.4-33.99,40.53-56.43,79.68C6.71,106.18,0,124.45,0,137.36c0,43.68,35.54,79.22,79.22,79.22,26.4,0,50.99-13.09,65.76-35.03l.25-.37.17-.27c8.54-12.95,13.05-28,13.05-43.55C158.45,94.77,85.18,7.09,82.06,3.38ZM28.6,124.24c-4.01-5.26-14.1-21.05,0-44.19,19.12-31.37,43.93-62.63,50.62-70.8,6.9,8.42,33.26,41.23,52.39,73.8,21.61,36.78,22.75,55.38,18.63,71.19-1.31,5.03-7.97,5.9-10.6,1.42-7.51-12.78-24.9-27.44-62.38-20.64-23.58,4.28-39.96.65-48.67-10.78Z" style="fill: #92d3d0; stroke-width: 0px;"/>
  </g>
</svg>